M48
METRIC,LZ,000.000
;FILE_FORMAT=3:3
;TYPE=PLATED
;Layer: PTH_Through
;EasyEDA v6.5.22, 2024-05-03 18:12:45
;10
;Gerber Generator version 0.2
;Holesize 1 = 1.000 mm
T01C1.000
%
G05
G90
T01
X028810Y-012000
X026270Y-012000
X023730Y-012000
X021190Y-012000
X040270Y-021000
X037730Y-021000
X033270Y-021000
X030730Y-021000
X026270Y-021000
X023730Y-021000
X019270Y-021000
X016730Y-021000
X012270Y-021000
X009730Y-021000
X046130Y-007330
X043590Y-007330
X041050Y-007330
X038510Y-007330
X035970Y-007330
X033430Y-007330
X030890Y-007330
X028350Y-007330
X025810Y-007330
X023270Y-007330
X020730Y-007330
X018190Y-007330
X015650Y-007330
X013110Y-007330
X010570Y-007330
X008030Y-007330
X005490Y-007330
X002950Y-007330
X000410Y-007330
X-002130Y-007330
X-002130Y007330
X000410Y007330
X002950Y007330
X005490Y007330
X008030Y007330
X010570Y007330
X013110Y007330
X015650Y007330
X018190Y007330
X020730Y007330
X023270Y007330
X025810Y007330
X028350Y007330
X030890Y007330
X033430Y007330
X035970Y007330
X038510Y007330
X041050Y007330
X043590Y007330
X046130Y007330
X000420Y015500
X010580Y015500
X014420Y013000
X024580Y013000
X014420Y016000
X024580Y016000
X014420Y019000
X024580Y019000
X000420Y012500
X010580Y012500
M30
