G04 Layer: TopLayer*
G04 EasyEDA v6.5.22, 2024-05-03 18:12:45*
G04 Gerber Generator version 0.2*
G04 Scale: 100 percent, Rotated: No, Reflected: No *
G04 Dimensions in millimeters *
G04 leading zeros omitted , absolute positions ,4 integer and 5 decimal *
%FSLAX45Y45*%
%MOMM*%

%ADD10C,0.6000*%
%ADD11R,1.8800X1.8800*%
%ADD12C,1.8800*%

%LPD*%
D10*
X2118868Y-1199895D02*
G01*
X2118868Y-965200D01*
X4380738Y-965200D01*
X4612893Y-733044D01*
X1057910Y1549907D02*
G01*
X1231900Y1376171D01*
X1231900Y1092200D01*
X1713737Y1092200D01*
X2072893Y733044D01*
X294894Y733044D02*
G01*
X-349250Y88900D01*
X-977900Y88900D01*
X-977900Y-1460500D01*
X-152400Y-2286000D01*
X3840988Y-2286000D01*
X4026915Y-2100071D01*
X1310894Y-733044D02*
G01*
X1310894Y-866394D01*
X1841500Y-1397000D01*
X2175763Y-1397000D01*
X2372868Y-1199895D01*
X1056894Y-733044D02*
G01*
X1056894Y-790194D01*
X1778000Y-1511300D01*
X2315718Y-1511300D01*
X2626868Y-1199895D01*
X3772915Y-2100071D02*
G01*
X3298697Y-1625600D01*
X1714500Y-1625600D01*
X1041400Y-952500D01*
X-406400Y-952500D01*
X-406400Y-482600D01*
X1873504Y-482600D01*
X3088893Y733044D01*
X2834893Y733044D02*
G01*
X1733550Y-368300D01*
X-520700Y-368300D01*
X-520700Y-1066800D01*
X977900Y-1066800D01*
X1651000Y-1739900D01*
X2712720Y-1739900D01*
X3072891Y-2100071D01*
X2326893Y733044D02*
G01*
X1339850Y-254000D01*
X-635000Y-254000D01*
X-635000Y-1181100D01*
X927100Y-1181100D01*
X1600200Y-1854200D01*
X2126995Y-1854200D01*
X2372868Y-2100071D01*
X2072893Y733044D02*
G01*
X1200150Y-139700D01*
X-749300Y-139700D01*
X-749300Y-1295400D01*
X868426Y-1295400D01*
X1673097Y-2100071D01*
X1818894Y733044D02*
G01*
X1060450Y-25400D01*
X-863600Y-25400D01*
X-863600Y-1409700D01*
X282702Y-1409700D01*
X973073Y-2100071D01*
X1441996Y1899996D02*
G01*
X1441996Y1299997D01*
X40894Y733044D02*
G01*
X40894Y2286000D01*
X1055878Y2286000D01*
X1441957Y1899920D01*
X1057998Y1249997D02*
G01*
X1057998Y965200D01*
X1586793Y965200D01*
X1818995Y732998D01*
X2457996Y1299997D02*
G01*
X2457996Y863998D01*
X2326995Y732998D01*
X2457996Y1599996D02*
G01*
X2834995Y1222997D01*
X2834995Y732998D01*
X2457996Y1899996D02*
G01*
X3088995Y1268996D01*
X3088995Y732998D01*
X2880868Y-1199895D02*
G01*
X4489704Y-1199895D01*
X4813300Y-876300D01*
X4813300Y-533400D01*
X4558538Y-533400D01*
X4358893Y-733044D01*
X3326891Y-2100071D02*
G01*
X3327908Y-2273300D01*
X2626868Y-2100071D02*
G01*
X2626868Y-2273300D01*
X1927097Y-2100071D02*
G01*
X1927097Y-2273300D01*
X1227073Y-2100071D02*
G01*
X1226057Y-2273300D01*
D11*
G01*
X2880995Y-1199997D03*
D12*
G01*
X2626995Y-1199997D03*
G01*
X2372995Y-1199997D03*
G01*
X2118995Y-1199997D03*
D11*
G01*
X4026992Y-2099995D03*
D12*
G01*
X3772992Y-2099995D03*
D11*
G01*
X3326993Y-2099995D03*
D12*
G01*
X3072993Y-2099995D03*
D11*
G01*
X2626995Y-2099995D03*
D12*
G01*
X2372995Y-2099995D03*
D11*
G01*
X1926996Y-2099995D03*
D12*
G01*
X1672996Y-2099995D03*
D11*
G01*
X1226997Y-2099995D03*
D12*
G01*
X972997Y-2099995D03*
G01*
X4612995Y-732993D03*
G01*
X4358995Y-732993D03*
G01*
X4104995Y-732993D03*
G01*
X3850995Y-732993D03*
G01*
X3596995Y-732993D03*
G01*
X3342995Y-732993D03*
G01*
X3088995Y-732993D03*
G01*
X2834995Y-732993D03*
G01*
X2580995Y-732993D03*
G01*
X2326995Y-732993D03*
G01*
X2072995Y-732993D03*
G01*
X1818995Y-732993D03*
G01*
X1564995Y-732993D03*
G01*
X1310995Y-732993D03*
G01*
X1056995Y-732993D03*
G01*
X802995Y-732993D03*
G01*
X548995Y-732993D03*
G01*
X294995Y-732993D03*
G01*
X40995Y-732993D03*
D11*
G01*
X-213004Y-732993D03*
D12*
G01*
X-213004Y732993D03*
G01*
X40995Y732993D03*
G01*
X294995Y732993D03*
G01*
X548995Y732993D03*
G01*
X802995Y732993D03*
G01*
X1056995Y732993D03*
G01*
X1310995Y732993D03*
G01*
X1564995Y732993D03*
G01*
X1818995Y732993D03*
G01*
X2072995Y732993D03*
G01*
X2326995Y732993D03*
G01*
X2580995Y732993D03*
G01*
X2834995Y732993D03*
G01*
X3088995Y732993D03*
G01*
X3342995Y732993D03*
G01*
X3596995Y732993D03*
G01*
X3850995Y732993D03*
G01*
X4104995Y732993D03*
G01*
X4358995Y732993D03*
D11*
G01*
X4612995Y732993D03*
D12*
G01*
X42011Y1549984D03*
G01*
X1058011Y1549984D03*
G01*
X1442008Y1299997D03*
G01*
X2458008Y1299997D03*
G01*
X1442008Y1599996D03*
G01*
X2458008Y1599996D03*
G01*
X1442008Y1899996D03*
G01*
X2458008Y1899996D03*
G01*
X42011Y1249984D03*
G01*
X1058011Y1249984D03*
M02*
