G04 Layer: BottomLayer*
G04 EasyEDA v6.5.22, 2024-05-03 18:12:45*
G04 Gerber Generator version 0.2*
G04 Scale: 100 percent, Rotated: No, Reflected: No *
G04 Dimensions in millimeters *
G04 leading zeros omitted , absolute positions ,4 integer and 5 decimal *
%FSLAX45Y45*%
%MOMM*%

%ADD10R,1.8800X1.8800*%
%ADD11C,1.8800*%

%LPD*%
D10*
G01*
X2880995Y-1199997D03*
D11*
G01*
X2626995Y-1199997D03*
G01*
X2372995Y-1199997D03*
G01*
X2118995Y-1199997D03*
D10*
G01*
X4026992Y-2099995D03*
D11*
G01*
X3772992Y-2099995D03*
D10*
G01*
X3326993Y-2099995D03*
D11*
G01*
X3072993Y-2099995D03*
D10*
G01*
X2626995Y-2099995D03*
D11*
G01*
X2372995Y-2099995D03*
D10*
G01*
X1926996Y-2099995D03*
D11*
G01*
X1672996Y-2099995D03*
D10*
G01*
X1226997Y-2099995D03*
D11*
G01*
X972997Y-2099995D03*
G01*
X4612995Y-732993D03*
G01*
X4358995Y-732993D03*
G01*
X4104995Y-732993D03*
G01*
X3850995Y-732993D03*
G01*
X3596995Y-732993D03*
G01*
X3342995Y-732993D03*
G01*
X3088995Y-732993D03*
G01*
X2834995Y-732993D03*
G01*
X2580995Y-732993D03*
G01*
X2326995Y-732993D03*
G01*
X2072995Y-732993D03*
G01*
X1818995Y-732993D03*
G01*
X1564995Y-732993D03*
G01*
X1310995Y-732993D03*
G01*
X1056995Y-732993D03*
G01*
X802995Y-732993D03*
G01*
X548995Y-732993D03*
G01*
X294995Y-732993D03*
G01*
X40995Y-732993D03*
D10*
G01*
X-213004Y-732993D03*
D11*
G01*
X-213004Y732993D03*
G01*
X40995Y732993D03*
G01*
X294995Y732993D03*
G01*
X548995Y732993D03*
G01*
X802995Y732993D03*
G01*
X1056995Y732993D03*
G01*
X1310995Y732993D03*
G01*
X1564995Y732993D03*
G01*
X1818995Y732993D03*
G01*
X2072995Y732993D03*
G01*
X2326995Y732993D03*
G01*
X2580995Y732993D03*
G01*
X2834995Y732993D03*
G01*
X3088995Y732993D03*
G01*
X3342995Y732993D03*
G01*
X3596995Y732993D03*
G01*
X3850995Y732993D03*
G01*
X4104995Y732993D03*
G01*
X4358995Y732993D03*
D10*
G01*
X4612995Y732993D03*
D11*
G01*
X42011Y1549984D03*
G01*
X1058011Y1549984D03*
G01*
X1442008Y1299997D03*
G01*
X2458008Y1299997D03*
G01*
X1442008Y1599996D03*
G01*
X2458008Y1599996D03*
G01*
X1442008Y1899996D03*
G01*
X2458008Y1899996D03*
G01*
X42011Y1249984D03*
G01*
X1058011Y1249984D03*
M02*
