M48
METRIC,LZ,000.000
;FILE_FORMAT=3:3
;TYPE=PLATED
;Layer: PTH_Through
;EasyEDA v6.5.22, 2024-04-13 17:31:40
;10
;Gerber Generator version 0.2
;Holesize 1 = 0.889 mm
T01C0.889
;Holesize 2 = 0.966 mm
T02C0.966
%
G05
G90
T01
X-002921Y-003810
X003810Y002794
X006350Y000254
X006350Y-002286
X002159Y-006350
X-000381Y-006350
X001270Y005334
X-001270Y005334
X-005461Y001270
X-005461Y-001270
T02
X-009652Y001270
X-009652Y-001270
X-001270Y009525
X001270Y009525
X-000898Y000898
X000898Y-000898
X001270Y-010541
X-001270Y-010541
X010541Y001270
X010541Y-001270
M30
