G04 Layer: TopSilkscreenLayer*
G04 EasyEDA v6.5.22, 2024-04-13 17:31:40*
G04 Gerber Generator version 0.2*
G04 Scale: 100 percent, Rotated: No, Reflected: No *
G04 Dimensions in millimeters *
G04 leading zeros omitted , absolute positions ,4 integer and 5 decimal *
%FSLAX45Y45*%
%MOMM*%

%ADD10C,0.1524*%
%ADD11C,0.2032*%
%ADD12C,0.2030*%
%ADD13C,0.2540*%

%LPD*%
D10*
X-240029Y-123444D02*
G01*
X-240029Y-206502D01*
X-245363Y-222250D01*
X-250444Y-227329D01*
X-260857Y-232410D01*
X-271271Y-232410D01*
X-281686Y-227329D01*
X-287020Y-222250D01*
X-292100Y-206502D01*
X-292100Y-196087D01*
X-205739Y-144271D02*
G01*
X-195579Y-138937D01*
X-179831Y-123444D01*
X-179831Y-232410D01*
X433070Y536955D02*
G01*
X433070Y453897D01*
X427736Y438150D01*
X422655Y433070D01*
X412242Y427989D01*
X401828Y427989D01*
X391413Y433070D01*
X386079Y438150D01*
X381000Y453897D01*
X381000Y464312D01*
X472439Y511047D02*
G01*
X472439Y516128D01*
X477520Y526542D01*
X482854Y531876D01*
X493268Y536955D01*
X514095Y536955D01*
X524510Y531876D01*
X529589Y526542D01*
X534670Y516128D01*
X534670Y505713D01*
X529589Y495300D01*
X519176Y479805D01*
X467360Y427989D01*
X540004Y427989D01*
X687070Y282955D02*
G01*
X687070Y199897D01*
X681736Y184150D01*
X676655Y179070D01*
X666242Y173989D01*
X655828Y173989D01*
X645413Y179070D01*
X640079Y184150D01*
X635000Y199897D01*
X635000Y210312D01*
X731520Y282955D02*
G01*
X788670Y282955D01*
X757681Y241300D01*
X773176Y241300D01*
X783589Y236220D01*
X788670Y231139D01*
X794004Y215392D01*
X794004Y204978D01*
X788670Y189484D01*
X778510Y179070D01*
X762762Y173989D01*
X747268Y173989D01*
X731520Y179070D01*
X726439Y184150D01*
X721360Y194563D01*
X687070Y28955D02*
G01*
X687070Y-54102D01*
X681736Y-69850D01*
X676655Y-74929D01*
X666242Y-80010D01*
X655828Y-80010D01*
X645413Y-74929D01*
X640079Y-69850D01*
X635000Y-54102D01*
X635000Y-43687D01*
X773176Y28955D02*
G01*
X721360Y-43687D01*
X799084Y-43687D01*
X773176Y28955D02*
G01*
X773176Y-80010D01*
X267970Y-377444D02*
G01*
X267970Y-460502D01*
X262636Y-476250D01*
X257555Y-481329D01*
X247142Y-486410D01*
X236728Y-486410D01*
X226313Y-481329D01*
X220979Y-476250D01*
X215900Y-460502D01*
X215900Y-450087D01*
X364489Y-377444D02*
G01*
X312420Y-377444D01*
X307339Y-424179D01*
X312420Y-419100D01*
X328168Y-413765D01*
X343662Y-413765D01*
X359410Y-419100D01*
X369570Y-429260D01*
X374904Y-445007D01*
X374904Y-455421D01*
X369570Y-470915D01*
X359410Y-481329D01*
X343662Y-486410D01*
X328168Y-486410D01*
X312420Y-481329D01*
X307339Y-476250D01*
X302260Y-465836D01*
X13970Y-377444D02*
G01*
X13970Y-460502D01*
X8636Y-476250D01*
X3555Y-481329D01*
X-6857Y-486410D01*
X-17271Y-486410D01*
X-27686Y-481329D01*
X-33020Y-476250D01*
X-38100Y-460502D01*
X-38100Y-450087D01*
X110489Y-392937D02*
G01*
X105410Y-382523D01*
X89662Y-377444D01*
X79247Y-377444D01*
X63754Y-382523D01*
X53339Y-398271D01*
X48260Y-424179D01*
X48260Y-450087D01*
X53339Y-470915D01*
X63754Y-481329D01*
X79247Y-486410D01*
X84581Y-486410D01*
X100076Y-481329D01*
X110489Y-470915D01*
X115570Y-455421D01*
X115570Y-450087D01*
X110489Y-434594D01*
X100076Y-424179D01*
X84581Y-419100D01*
X79247Y-419100D01*
X63754Y-424179D01*
X53339Y-434594D01*
X48260Y-450087D01*
X179070Y790955D02*
G01*
X179070Y707897D01*
X173736Y692150D01*
X168655Y687070D01*
X158242Y681989D01*
X147828Y681989D01*
X137413Y687070D01*
X132079Y692150D01*
X127000Y707897D01*
X127000Y718312D01*
X286004Y790955D02*
G01*
X233934Y681989D01*
X213360Y790955D02*
G01*
X286004Y790955D01*
X-74929Y790955D02*
G01*
X-74929Y707897D01*
X-80263Y692150D01*
X-85344Y687070D01*
X-95757Y681989D01*
X-106171Y681989D01*
X-116586Y687070D01*
X-121920Y692150D01*
X-127000Y707897D01*
X-127000Y718312D01*
X-14731Y790955D02*
G01*
X-30479Y785876D01*
X-35560Y775462D01*
X-35560Y765047D01*
X-30479Y754634D01*
X-20065Y749300D01*
X762Y744220D01*
X16510Y739139D01*
X26670Y728726D01*
X32004Y718312D01*
X32004Y702563D01*
X26670Y692150D01*
X21589Y687070D01*
X6095Y681989D01*
X-14731Y681989D01*
X-30479Y687070D01*
X-35560Y692150D01*
X-40639Y702563D01*
X-40639Y718312D01*
X-35560Y728726D01*
X-25145Y739139D01*
X-9652Y744220D01*
X11176Y749300D01*
X21589Y754634D01*
X26670Y765047D01*
X26670Y775462D01*
X21589Y785876D01*
X6095Y790955D01*
X-14731Y790955D01*
X-494029Y384555D02*
G01*
X-494029Y301497D01*
X-499363Y285750D01*
X-504444Y280670D01*
X-514857Y275589D01*
X-525271Y275589D01*
X-535686Y280670D01*
X-541020Y285750D01*
X-546100Y301497D01*
X-546100Y311912D01*
X-392429Y348234D02*
G01*
X-397510Y332739D01*
X-407923Y322326D01*
X-423418Y316992D01*
X-428752Y316992D01*
X-444245Y322326D01*
X-454660Y332739D01*
X-459739Y348234D01*
X-459739Y353313D01*
X-454660Y369062D01*
X-444245Y379476D01*
X-428752Y384555D01*
X-423418Y384555D01*
X-407923Y379476D01*
X-397510Y369062D01*
X-392429Y348234D01*
X-392429Y322326D01*
X-397510Y296163D01*
X-407923Y280670D01*
X-423418Y275589D01*
X-433831Y275589D01*
X-449579Y280670D01*
X-454660Y291084D01*
X-417829Y115315D02*
G01*
X-417829Y32257D01*
X-423163Y16510D01*
X-428244Y11429D01*
X-438657Y6350D01*
X-449071Y6350D01*
X-459486Y11429D01*
X-464820Y16510D01*
X-469900Y32257D01*
X-469900Y42671D01*
X-383539Y94487D02*
G01*
X-373379Y99821D01*
X-357631Y115315D01*
X-357631Y6350D01*
X-292100Y115315D02*
G01*
X-307847Y110236D01*
X-318262Y94487D01*
X-323342Y68579D01*
X-323342Y53086D01*
X-318262Y26923D01*
X-307847Y11429D01*
X-292100Y6350D01*
X-281939Y6350D01*
X-266192Y11429D01*
X-255778Y26923D01*
X-250697Y53086D01*
X-250697Y68579D01*
X-255778Y94487D01*
X-266192Y110236D01*
X-281939Y115315D01*
X-292100Y115315D01*
X-990600Y379018D02*
G01*
X-990600Y270052D01*
X-990600Y270052D02*
G01*
X-928370Y270052D01*
X-894079Y379018D02*
G01*
X-894079Y270052D01*
X-894079Y379018D02*
G01*
X-826515Y379018D01*
X-894079Y327202D02*
G01*
X-852423Y327202D01*
X-894079Y270052D02*
G01*
X-826515Y270052D01*
X-792226Y379018D02*
G01*
X-792226Y270052D01*
X-792226Y379018D02*
G01*
X-755650Y379018D01*
X-740155Y373938D01*
X-729742Y363524D01*
X-724662Y353110D01*
X-719328Y337362D01*
X-719328Y311454D01*
X-724662Y295960D01*
X-729742Y285546D01*
X-740155Y275132D01*
X-755650Y270052D01*
X-792226Y270052D01*
X-685037Y358190D02*
G01*
X-674623Y363524D01*
X-659129Y379018D01*
X-659129Y270052D01*
X-379018Y927100D02*
G01*
X-270052Y927100D01*
X-270052Y927100D02*
G01*
X-270052Y989329D01*
X-379018Y1023620D02*
G01*
X-270052Y1023620D01*
X-379018Y1023620D02*
G01*
X-379018Y1091184D01*
X-327202Y1023620D02*
G01*
X-327202Y1065276D01*
X-270052Y1023620D02*
G01*
X-270052Y1091184D01*
X-379018Y1125473D02*
G01*
X-270052Y1125473D01*
X-379018Y1125473D02*
G01*
X-379018Y1162050D01*
X-373938Y1177544D01*
X-363524Y1187957D01*
X-353110Y1193037D01*
X-337362Y1198371D01*
X-311454Y1198371D01*
X-295960Y1193037D01*
X-285546Y1187957D01*
X-275132Y1177544D01*
X-270052Y1162050D01*
X-270052Y1125473D01*
X-353110Y1237742D02*
G01*
X-358190Y1237742D01*
X-368604Y1243076D01*
X-373938Y1248155D01*
X-379018Y1258570D01*
X-379018Y1279397D01*
X-373938Y1289812D01*
X-368604Y1294892D01*
X-358190Y1300226D01*
X-347776Y1300226D01*
X-337362Y1294892D01*
X-321868Y1284478D01*
X-270052Y1232662D01*
X-270052Y1305305D01*
X-285968Y250045D02*
G01*
X-208917Y172996D01*
X-208917Y172996D02*
G01*
X-164914Y216999D01*
X-217716Y318295D02*
G01*
X-140667Y241246D01*
X-217716Y318295D02*
G01*
X-169941Y366072D01*
X-181079Y281655D02*
G01*
X-151622Y311111D01*
X-140667Y241246D02*
G01*
X-92892Y289021D01*
X-145696Y390316D02*
G01*
X-68646Y313268D01*
X-145696Y390316D02*
G01*
X-119832Y416181D01*
X-105285Y423545D01*
X-90556Y423545D01*
X-79601Y419773D01*
X-64693Y412409D01*
X-46372Y394088D01*
X-39189Y379361D01*
X-35417Y368406D01*
X-35417Y353677D01*
X-42781Y339130D01*
X-68646Y313268D01*
X-62537Y473473D02*
G01*
X-22128Y513885D01*
X-14762Y462338D01*
X-3807Y473295D01*
X7147Y477067D01*
X14511Y477245D01*
X29240Y469704D01*
X36603Y462338D01*
X43967Y447791D01*
X43967Y433064D01*
X36423Y418335D01*
X25468Y407380D01*
X10919Y400016D01*
X3555Y399836D01*
X-7399Y403608D01*
X379018Y-1028700D02*
G01*
X270052Y-1028700D01*
X270052Y-1028700D02*
G01*
X270052Y-1090929D01*
X379018Y-1125220D02*
G01*
X270052Y-1125220D01*
X379018Y-1125220D02*
G01*
X379018Y-1192784D01*
X327202Y-1125220D02*
G01*
X327202Y-1166876D01*
X270052Y-1125220D02*
G01*
X270052Y-1192784D01*
X379018Y-1227073D02*
G01*
X270052Y-1227073D01*
X379018Y-1227073D02*
G01*
X379018Y-1263650D01*
X373938Y-1279144D01*
X363524Y-1289557D01*
X353110Y-1294637D01*
X337362Y-1299971D01*
X311454Y-1299971D01*
X295960Y-1294637D01*
X285546Y-1289557D01*
X275132Y-1279144D01*
X270052Y-1263650D01*
X270052Y-1227073D01*
X379018Y-1386078D02*
G01*
X306374Y-1334262D01*
X306374Y-1412239D01*
X379018Y-1386078D02*
G01*
X270052Y-1386078D01*
X1028700Y379018D02*
G01*
X1028700Y270052D01*
X1028700Y270052D02*
G01*
X1090929Y270052D01*
X1125220Y379018D02*
G01*
X1125220Y270052D01*
X1125220Y379018D02*
G01*
X1192784Y379018D01*
X1125220Y327202D02*
G01*
X1166876Y327202D01*
X1125220Y270052D02*
G01*
X1192784Y270052D01*
X1227073Y379018D02*
G01*
X1227073Y270052D01*
X1227073Y379018D02*
G01*
X1263650Y379018D01*
X1279144Y373938D01*
X1289557Y363524D01*
X1294637Y353110D01*
X1299971Y337362D01*
X1299971Y311454D01*
X1294637Y295960D01*
X1289557Y285546D01*
X1279144Y275132D01*
X1263650Y270052D01*
X1227073Y270052D01*
X1396492Y379018D02*
G01*
X1344676Y379018D01*
X1339342Y332282D01*
X1344676Y337362D01*
X1360170Y342696D01*
X1375663Y342696D01*
X1391412Y337362D01*
X1401826Y327202D01*
X1406905Y311454D01*
X1406905Y301040D01*
X1401826Y285546D01*
X1391412Y275132D01*
X1375663Y270052D01*
X1360170Y270052D01*
X1344676Y275132D01*
X1339342Y280212D01*
X1334262Y290626D01*
D11*
X-165100Y-508000D02*
G01*
X-419100Y-508000D01*
X-419100Y-254000D01*
X-165100Y-254000D01*
X-165100Y-444500D01*
D12*
X-165100Y-508000D02*
G01*
X-165100Y-444500D01*
D11*
X508000Y152400D02*
G01*
X254000Y152400D01*
X254000Y406400D01*
X508000Y406400D01*
X508000Y215900D01*
D12*
X508000Y152400D02*
G01*
X508000Y215900D01*
D11*
X762000Y-101600D02*
G01*
X508000Y-101600D01*
X508000Y152400D01*
X762000Y152400D01*
X762000Y-38100D01*
D12*
X762000Y-101600D02*
G01*
X762000Y-38100D01*
D11*
X762000Y-355600D02*
G01*
X508000Y-355600D01*
X508000Y-101600D01*
X762000Y-101600D01*
X762000Y-292100D01*
D12*
X762000Y-355600D02*
G01*
X762000Y-292100D01*
D11*
X342900Y-762000D02*
G01*
X88900Y-762000D01*
X88900Y-508000D01*
X342900Y-508000D01*
X342900Y-698500D01*
D12*
X342900Y-762000D02*
G01*
X342900Y-698500D01*
D11*
X88900Y-762000D02*
G01*
X-165100Y-762000D01*
X-165100Y-508000D01*
X88900Y-508000D01*
X88900Y-698500D01*
D12*
X88900Y-762000D02*
G01*
X88900Y-698500D01*
D11*
X254000Y406400D02*
G01*
X0Y406400D01*
X0Y660400D01*
X254000Y660400D01*
X254000Y469900D01*
D12*
X254000Y406400D02*
G01*
X254000Y469900D01*
D11*
X0Y406400D02*
G01*
X-254000Y406400D01*
X-254000Y660400D01*
X0Y660400D01*
X0Y469900D01*
D12*
X0Y406400D02*
G01*
X0Y469900D01*
D11*
X-419100Y0D02*
G01*
X-673100Y0D01*
X-673100Y254000D01*
X-419100Y254000D01*
X-419100Y63500D01*
D12*
X-419100Y0D02*
G01*
X-419100Y63500D01*
D11*
X-419100Y-254000D02*
G01*
X-673100Y-254000D01*
X-673100Y0D01*
X-419100Y0D01*
X-419100Y-190500D01*
D12*
X-419100Y-254000D02*
G01*
X-419100Y-190500D01*
D13*
X-1095199Y-222996D02*
G01*
X-835200Y-222996D01*
X222996Y822500D02*
G01*
X222996Y1082499D01*
X65758Y-249605D02*
G01*
X249605Y-65758D01*
X-222996Y-924100D02*
G01*
X-222996Y-1184099D01*
X924100Y-222996D02*
G01*
X1184099Y-222996D01*
G75*
G01*
X-827024Y-220167D02*
G03*
X-1103376Y-220167I-138176J220244D01*
G75*
G01*
X220167Y1090676D02*
G03*
X220167Y814324I-220244J-138176D01*
G75*
G01*
X253388Y-57975D02*
G03*
X57975Y-253388I-253442J58029D01*
G75*
G01*
X-220167Y-1192276D02*
G03*
X-220167Y-915924I220244J138176D01*
G75*
G01*
X1192276Y-220167D02*
G03*
X915924Y-220167I-138176J220244D01*
M02*
