G04 Layer: TopLayer*
G04 EasyEDA v6.5.22, 2024-04-13 17:31:40*
G04 Gerber Generator version 0.2*
G04 Scale: 100 percent, Rotated: No, Reflected: No *
G04 Dimensions in millimeters *
G04 leading zeros omitted , absolute positions ,4 integer and 5 decimal *
%FSLAX45Y45*%
%MOMM*%

%ADD10C,0.6000*%
%ADD11R,1.5748X1.5748*%
%ADD12C,1.6510*%

%LPD*%
D10*
X-965200Y127000D02*
G01*
X-546100Y127000D01*
X-965200Y-127000D02*
G01*
X-546100Y-127000D01*
X127000Y-1054100D02*
G01*
X215900Y-965200D01*
X215900Y-635000D01*
X-127000Y-1054100D02*
G01*
X-38100Y-965200D01*
X-38100Y-635000D01*
X-127000Y952500D02*
G01*
X-127000Y533400D01*
X127000Y952500D02*
G01*
X127000Y533400D01*
X1054100Y127000D02*
G01*
X952500Y25400D01*
X635000Y25400D01*
X1054100Y-127000D02*
G01*
X952500Y-228600D01*
X635000Y-228600D01*
X-292100Y-381000D02*
G01*
X-201396Y-381000D01*
X89799Y-89799D01*
X381000Y279400D02*
G01*
X99796Y279400D01*
X-89799Y89799D01*
D11*
G01*
X-292100Y-381000D03*
G01*
X381000Y279400D03*
G01*
X635000Y25400D03*
G01*
X635000Y-228600D03*
G01*
X215900Y-635000D03*
G01*
X-38100Y-635000D03*
G01*
X127000Y533400D03*
G01*
X-127000Y533400D03*
G01*
X-546100Y127000D03*
G01*
X-546100Y-127000D03*
D12*
G01*
X-965200Y127000D03*
G01*
X-965200Y-127000D03*
G01*
X-127000Y952500D03*
G01*
X127000Y952500D03*
G01*
X-89801Y89801D03*
G01*
X89801Y-89801D03*
G01*
X127000Y-1054100D03*
G01*
X-127000Y-1054100D03*
G01*
X1054100Y127000D03*
G01*
X1054100Y-127000D03*
M02*
