M48
METRIC,LZ,000.000
;FILE_FORMAT=3:3
;TYPE=PLATED
;Layer: PTH_Through
;EasyEDA v6.5.22, 2024-04-16 17:29:42
;10
;Gerber Generator version 0.2
;Holesize 1 = 1.000 mm
T01C1.000
%
G05
G90
T01
X-003400Y-003400
X003400Y003400
X005969Y000889
X005969Y-001651
X001651Y-005969
X-000889Y-005969
X000889Y005969
X-001651Y005969
X-005969Y001651
X-005969Y-000889
X-010200Y001270
X-010200Y-001270
X-001270Y010200
X001270Y010200
X-000898Y000898
X000898Y-000898
X001270Y-010200
X-001270Y-010200
X010200Y001270
X010200Y-001270
M30
