G04 Layer: TopLayer*
G04 EasyEDA v6.5.22, 2024-04-16 17:29:42*
G04 Gerber Generator version 0.2*
G04 Scale: 100 percent, Rotated: No, Reflected: No *
G04 Dimensions in millimeters *
G04 leading zeros omitted , absolute positions ,4 integer and 5 decimal *
%FSLAX45Y45*%
%MOMM*%

%ADD10C,0.6000*%
%ADD11R,1.5748X1.5748*%
%ADD12C,1.6510*%

%LPD*%
D10*
X127000Y-1019997D02*
G01*
X165100Y-981897D01*
X165100Y-596900D01*
X-127000Y-1019997D02*
G01*
X-88900Y-981897D01*
X-88900Y-596900D01*
X127000Y1019997D02*
G01*
X88900Y981897D01*
X88900Y596902D01*
X-127000Y1019997D02*
G01*
X-165100Y981897D01*
X-165100Y596902D01*
X-340004Y-339999D02*
G01*
X-160370Y-339999D01*
X89814Y-89814D01*
X-1019997Y-127000D02*
G01*
X-981897Y-88900D01*
X-596900Y-88900D01*
X-1019997Y127000D02*
G01*
X-981897Y165100D01*
X-596900Y165100D01*
X1019997Y-127000D02*
G01*
X981897Y-165100D01*
X596900Y-165100D01*
X1019997Y127000D02*
G01*
X981897Y88900D01*
X596900Y88900D01*
X-89788Y89788D02*
G01*
X160421Y339999D01*
X339999Y339999D01*
D11*
G01*
X-340004Y-339999D03*
G01*
X339999Y339999D03*
G01*
X596900Y88900D03*
G01*
X596900Y-165100D03*
G01*
X165100Y-596900D03*
G01*
X-88900Y-596900D03*
G01*
X88900Y596902D03*
G01*
X-165100Y596902D03*
G01*
X-596900Y165100D03*
G01*
X-596900Y-88900D03*
D12*
G01*
X-1019997Y127000D03*
G01*
X-1019997Y-127000D03*
G01*
X-127000Y1019997D03*
G01*
X127000Y1019997D03*
G01*
X-89788Y89788D03*
G01*
X89814Y-89814D03*
G01*
X127000Y-1019997D03*
G01*
X-127000Y-1019997D03*
G01*
X1019997Y127000D03*
G01*
X1019997Y-127000D03*
M02*
